Coordinates
version=1
nRows=19
nColumns=36
inDegrees=yes

Units are S.I. units (second, meters, Newtons, ...)
If the header above contains a line with 'inDegrees', this indicates whether rotational values are in degrees (yes) or radians (no).

endheader
time	pelvis_tilt	pelvis_list	pelvis_rotation	pelvis_tx	pelvis_ty	pelvis_tz	hip_flexion_r	hip_adduction_r	hip_rotation_r	knee_angle_r	knee_angle_r_beta	ankle_angle_r	subtalar_angle_r	mtp_angle_r	hip_flexion_l	hip_adduction_l	hip_rotation_l	knee_angle_l	knee_angle_l_beta	ankle_angle_l	subtalar_angle_l	mtp_angle_l	lumbar_extension	lumbar_bending	lumbar_rotation	arm_flex_r	arm_add_r	arm_rot_r	elbow_flex_r	pro_sup_r	arm_flex_l	arm_add_l	arm_rot_l	elbow_flex_l	pro_sup_l
      1.34000000	     -5.90517241	     -2.57871594	      7.97613092	     -0.36710545	      0.68175819	     -0.60858402	     72.31893250	     -5.34059894	     -4.55572569	    106.01881307	      1.85037736	     38.21571682	     -8.26571263	     -7.47711654	     70.72804616	      4.53771849	      6.46362338	    108.54847018	      1.89452820	     39.86516555	    -13.36648223	     -7.47711654	    -32.16157540	      3.82151825	     -1.58064920	     79.42357012	    -25.09739360	     12.19636499	     85.80765597	    106.87107721	     76.69187392	    -27.70429250	     18.62941865	     82.58353331	     94.41739800
      1.35000000	     -6.27008457	     -2.62693813	      8.16897813	     -0.36408936	      0.69544920	     -0.60889764	     70.94609995	     -5.31793627	     -4.72397701	    103.81465154	      1.81190748	     37.71657580	     -8.25787325	     -7.47735063	     69.41928434	      4.48523499	      6.51700756	    106.25149176	      1.85443837	     39.44656772	    -13.24281067	     -7.47735063	    -31.26421544	      3.82202723	     -2.06826981	     82.05053145	    -27.47954607	     13.42098198	     90.87463838	    107.03173043	     80.25895202	    -30.04705197	     20.58971934	     85.75091249	     94.65263702
      1.36000000	     -6.56167272	     -2.57887072	      8.30220829	     -0.36103524	      0.71008244	     -0.60902032	     69.42335192	     -5.22081349	     -4.78402079	    101.39597049	      1.76969353	     37.04924204	     -8.68689025	     -7.47788499	     67.92303143	      4.35301017	      6.44654750	    103.74734454	      1.81073275	     38.84411053	    -13.37071409	     -7.47788499	    -30.37650061	      3.50849585	     -2.26026865	     85.02489927	    -30.63361157	     14.75185202	     95.17812415	    106.67385113	     85.14944652	    -32.11183715	     24.39978161	     87.99613883	     94.48781816
      1.37000000	     -6.96109312	     -2.54434864	      8.55579884	     -0.35772842	      0.72551896	     -0.60936300	     67.88042005	     -5.23639570	     -4.89116336	     98.78831135	      1.72418130	     36.27247820	     -8.93043511	     -7.48413648	     66.46352559	      4.30338176	      6.41814018	    101.03771735	      1.76344084	     38.06885043	    -13.28940920	     -7.48413648	    -29.32330628	      3.30783586	     -2.74149326	     88.33839926	    -33.39377458	     16.09482277	     99.69335459	    100.71861562	     90.00605905	    -33.90073197	     27.52265578	     90.79306446	     88.53163474
      1.38000000	     -7.36737189	     -2.50981273	      8.86292509	     -0.35420128	      0.74180142	     -0.60985192	     66.20744767	     -5.30475713	     -5.05108551	     95.96273140	      1.67486562	     35.50459368	     -9.13181473	     -7.48452470	     64.90849582	      4.26241515	      6.37748352	     98.10726038	      1.71229471	     37.34394697	    -13.10495269	     -7.48452470	    -28.20982663	      3.14520478	     -3.47764480	     92.31501245	    -35.84246862	     17.46965109	    102.80896311	    100.89299768	     95.22159530	    -35.67334077	     30.49974062	     92.72018176	     88.75217656
      1.39000000	     -7.85621689	     -2.50496531	      9.21668435	     -0.35019599	      0.75907386	     -0.61053899	     64.44610288	     -5.42192376	     -5.28033350	     92.87566905	      1.62098622	     34.67243328	     -9.08354086	     -7.48470917	     63.28406404	      4.26224286	      6.42788240	     94.92131294	      1.65668944	     36.47519803	    -12.68263192	     -7.48470917	    -26.96415696	      3.07985286	     -4.22820230	     96.51657006	    -38.13460266	     18.62348038	    105.82877764	    101.03484784	    100.23633311	    -37.05693896	     32.76552886	     94.72909002	     89.00214186
      1.40000000	     -8.05906026	     -2.43409421	      9.44160334	     -0.34610016	      0.77732951	     -0.61080451	     62.32482658	     -5.32932504	     -5.42437079	     89.54018855	      1.56277110	     33.36356308	     -9.86992844	     -7.48859352	     61.25615470	      4.02180816	      6.27068500	     91.49624648	      1.59691075	     35.42555074	    -12.80682185	     -7.48859352	    -25.93422644	      2.80274002	     -4.83279235	    101.45627282	    -40.55062546	     20.84448872	    107.45944438	     97.69794026	    106.98393098	    -38.40640312	     37.97810770	     95.38712382	     86.99946649
      1.41000000	     -8.31624051	     -2.44318203	      9.66755213	     -0.34146047	      0.79669861	     -0.61129547	     60.10716224	     -5.23966019	     -5.67602156	     85.92672312	      1.49970423	     31.89790877	    -10.21902793	     -7.48906250	     59.13995374	      3.69359584	      6.16125597	     87.78749935	      1.53218091	     34.24573629	    -12.56798681	     -7.48906250	    -24.76515939	      2.67848927	     -5.58366124	    106.50758299	    -42.44730473	     22.96486687	    108.36327863	     97.50924328	    112.99207681	    -39.37034157	     41.74163659	     96.25732006	     86.96837473
      1.42000000	     -8.50255412	     -2.46430800	      9.94077327	     -0.33627170	      0.81733649	     -0.61214368	     57.65895233	     -5.26129288	     -6.06164887	     82.03446432	      1.43177150	     30.25464002	    -10.19072538	     -7.48934393	     56.79778771	      3.35269481	      6.02147764	     83.75331610	      1.46177113	     32.94296640	    -12.11305329	     -7.48934393	    -23.57535344	      2.58671562	     -6.30462414	    111.36639020	    -44.22889131	     24.92618865	    108.67318838	     97.32309089	    118.46283965	    -39.80512647	     44.71400147	     97.06799703	     86.94652587
      1.43000000	     -8.76343785	     -2.47123989	     10.13584500	     -0.33109397	      0.83842701	     -0.61288765	     55.35321504	     -5.20427505	     -6.45463625	     77.96797043	      1.36079780	     27.51078078	    -11.27783235	     -7.49011101	     54.51632554	      2.92354315	      5.65325747	     79.52804437	      1.38802622	     30.95454117	    -12.27279035	     -7.49011101	    -22.19418639	      2.46165516	     -7.39218978	    116.31938798	    -45.09112809	     27.43222742	    107.13580695	     96.75246630	    124.76630520	    -40.51165446	     49.20228364	     96.95164583	     86.70544392
      1.44000000	     -9.00805855	     -2.50046485	     10.33957280	     -0.32537318	      0.86080694	     -0.61390484	     52.91942280	     -5.19765044	     -6.95529754	     73.66079908	      1.28562347	     24.58333464	    -11.69636339	     -7.49056068	     52.05661111	      2.49760611	      5.24054073	     74.96353076	      1.30836043	     28.73042749	    -12.14114934	     -7.49056068	    -20.70253644	      2.34022471	     -8.21439458	    120.94097907	    -46.25171315	     30.24187378	    105.09112875	     96.31607535	    129.97489797	    -40.49114739	     52.64359145	     96.72519274	     86.58991603
      1.45000000	     -9.14566441	     -2.49411325	     10.52566472	     -0.31927089	      0.88443050	     -0.61507266	     50.30237282	     -5.21997202	     -7.54190784	     69.10153066	      1.20604923	     21.09505814	    -12.01580067	     -7.49092829	     49.31372553	      2.07063209	      4.74972089	     70.01981088	      1.22207624	     25.99810102	    -12.01641673	     -7.49092829	    -19.18711707	      2.15334574	     -9.07115020	    124.92207871	    -47.27513675	     33.20526152	    102.22317197	     95.85173985	    134.60788283	    -40.27785467	     55.99064743	     96.15593871	     86.45370968
      1.46000000	     -9.29915505	     -2.45479525	     10.74136181	     -0.31281597	      0.90911206	     -0.61650629	     47.58517733	     -5.32673404	     -8.26207517	     64.20575306	      1.12060179	     16.90989464	    -12.34693366	     -7.49129366	     46.42730285	      1.70187034	      4.22407037	     64.64648674	      1.12829404	     22.48486064	    -11.99428654	     -7.49129366	    -17.52523861	      1.90236340	     -9.90046080	    128.30916339	    -48.46777592	     36.40206235	     98.90295143	     95.58514306	    138.48292685	    -39.98840863	     59.19836558	     95.42254845	     86.38003492
      1.47000000	     -9.26739525	     -2.35712377	     10.92442365	     -0.30593221	      0.93527000	     -0.61814648	     44.48214953	     -5.40870732	     -9.06264039	     58.84914709	      1.02711138	     12.27775523	    -12.38583194	     -7.49155942	     43.14270766	      1.31354098	      3.55159662	     58.80071942	      1.02626616	     18.29003648	    -11.76069910	     -7.49155942	    -15.99260575	      1.58051287	    -10.44647695	    131.35408828	    -50.01008804	     39.92908440	     95.19930802	     95.59763558	    141.42294444	    -39.61204601	     62.02159625	     94.58666527	     86.42133304
      1.48000000	     -9.06920762	     -2.28966655	     10.96556843	     -0.29863822	      0.96295804	     -0.61965350	     40.99456986	     -5.31798724	     -9.94677031	     52.88241726	      0.92297230	      6.90239152	    -12.14278178	     -7.49168660	     39.52194550	      0.73904363	      2.63114108	     52.47723233	      0.91590049	     13.24282585	    -11.30093871	     -7.49168660	    -14.59073495	      1.27787349	    -10.61290956	    134.24021944	    -51.77992176	     44.11969745	     91.23740438	     95.70496368	    143.43972920	    -39.38874637	     64.38884131	     93.81659239	     86.62104060
      1.49000000	     -8.66259025	     -2.22046993	     10.86637416	     -0.29096019	      0.99242384	     -0.62114243	     37.03841832	     -5.09948520	    -10.92790425	     46.21635876	      0.80662763	      0.67184602	    -11.20094071	     -7.49269513	     35.44059855	      0.05939581	      1.41522367	     45.51186927	      0.79433197	      7.22046686	    -10.47568185	     -7.49269513	    -13.45445731	      0.98837974	     -9.17585043	    139.77921867	    -55.40293353	     52.36834992	     88.27935317	     93.31693586	    142.66352621	    -38.43421056	     63.77045956	     92.90296616	     86.11135460
      1.50000000	     -7.90571115	     -1.96912238	     10.67672718	     -0.28297037	      1.02360179	     -0.62251446	     32.44040937	     -4.89202499	    -11.90144998	     38.81879292	      0.67751575	     -6.31851288	     -9.36178017	     -7.49223821	     30.63945055	     -0.52750228	     -0.17026799	     37.76906047	      0.65919446	      0.35487819	     -8.59156984	     -7.49223821	    -12.70337527	      0.68968237	     -9.33031347	    141.24334269	    -56.94624900	     56.23926891	     84.94842472	     94.28449765	    143.85017771	    -39.85814339	     66.04457563	     92.83147727	     87.17669688
      1.51000000	     -7.37785250	     -1.64917573	     10.32662027	     -0.27509043	      1.05501004	     -0.62415236	     28.02300494	     -4.71018715	    -12.75861073	     30.87033225	      0.53878894	    -14.67017292	     -6.92787439	     -7.49424335	     25.88896519	     -0.87928142	     -2.09600332	     29.33475709	      0.51198810	     -8.36643109	     -6.53517878	     -7.49424335	    -11.83746301	      0.27136198	     -6.94272780	    149.47825580	    -61.15108136	     68.55148482	     83.66611898	     87.23158357	    141.42573670	    -39.58912138	     64.42071596	     92.44644843	     84.43301543
      1.52000000	     -6.95323121	     -1.32622840	      9.87857104	     -0.26740702	      1.08616165	     -0.62558695	     23.78317284	     -4.50078722	    -13.50136136	     22.48087360	      0.39236526	    -24.00989414	     -3.46734875	     -7.49338528	     21.16206368	     -1.07034019	     -4.21544821	     20.17546945	      0.35212837	    -18.66547315	     -3.17244105	     -7.49338528	    -10.76428791	     -0.08528452	     -6.30207070	    151.62302068	    -63.33182732	     73.48017658	     81.43427811	     89.76446070	    140.94483987	    -41.57211546	     65.44063932	     92.38842353	     86.45076927
